<svg id="Layer_1" data-name="Layer 1" xmlns="http://www.w3.org/2000/svg" width="256" height="256" viewBox="0 0 256 256"><title>brachiosarus</title><g id="brachiosarus"><path d="M60,166.4a31.1,31.1,0,0,0-7.6.8h0v.2c0,.2.3.6.8.9a12,12,0,0,0,2,1.1l2.6.9,2.8.9,2.4.6,1.4.2h2.2l2.5-.4a15.7,15.7,0,0,0,2.3-.9,4.7,4.7,0,0,0,1.7-1.4,26.3,26.3,0,0,0-6.3-2.2A30.5,30.5,0,0,0,60,166.4Z"/><path d="M128.3,1.7a126,126,0,1,0,126,126A126,126,0,0,0,128.3,1.7Zm82.2,69.5v.3a8.8,8.8,0,0,1-.1,1.4l-.3,2.1c-.2.7-.2,1.4-.4,2s-.2,1.1-.2,1.4a5.1,5.1,0,0,0-.9,1.8l-.6,1.9-.6,2c-.2.7-.5,1.3-.7,2s-1.1,2.1-1.7,3a21.1,21.1,0,0,0-1.6,3l-19.8,27.5a.8.8,0,0,1-.2.5l-.2.3-.4.3-.4.5-1.6,2.2-2.1,2.9-2.1,3.2-2,3.2a26.3,26.3,0,0,0-1.4,3,7.4,7.4,0,0,0-.5,2.3c0,.2-.2.5-.2.7s.2.4.2.7h0c-.2,0-.3.1-.3.4s.1.3.3.4v10a3.6,3.6,0,0,1-.2,1c-.2.4-.2.8-.4,1.2s-.5.8-.6,1.2-.4.8-.4,1.1v1.6a.5.5,0,0,1-.1.5,2.5,2.5,0,0,1-.4.7c-.1.3-.5.6-.7.8s-.5.4-.5.5v.4s.7.2.8.4.9.3.9.4v.5a2.7,2.7,0,0,0,0,.9v1.4c0,1.2-.5,2.3-.6,3.5s-.6,2.3-.8,3.4-.5,2.4-.7,3.5a20.7,20.7,0,0,0-.3,3.5c0,2.1.1,4.2.3,6.2a38.8,38.8,0,0,0,1.1,6.1,27.8,27.8,0,0,0,2.1,5.7,22.2,22.2,0,0,0,3.4,5.2,4.1,4.1,0,0,1-1.3.8l-1.6.7-1.8.5h-1.8l-1.1-.3-1.1-.2-1-.3h-.8l-.7-.3-.6-.5a.8.8,0,0,1-.3-.7c.1-1.3.1-2.6.1-4l-.3-4.2c-.1-1.4-.3-2.8-.5-4.3s-.4-2.7-.5-4-.1-.3-.2-.6a1.6,1.6,0,0,0-.3-.6c.1-1.1.1-2.3.2-3.6s-.1-2.7-.2-4a25.7,25.7,0,0,0-.6-4,10.2,10.2,0,0,0-1.4-3.4,3.7,3.7,0,0,0-1.4,1.8,27.6,27.6,0,0,0-.8,2.7c-.2,1-.2,1.9-.4,2.9a11.8,11.8,0,0,0-.9,2.3V184c0,2.8-.2,5.6-.1,8.2s.2,5.4.5,8.2l.4.3.8.6a2.7,2.7,0,0,1,.8.7.7.7,0,0,1,.4.6c0,.2-.3.5-.8.8l-1.9.8a17.6,17.6,0,0,1-2,.9l-1.2.4H153l-4.7-2.6c-.3-.1-.2-.4-.2-.5v-.6a14,14,0,0,1,0-2.9,28.1,28.1,0,0,0,.1-3,23.4,23.4,0,0,0-.3-3.8l-.6-3.7-.6-3.7a24.2,24.2,0,0,1-.2-3.9,31.1,31.1,0,0,1,.1-3.2l.3-2.8a23.3,23.3,0,0,0,.5-2.8c.2-.9.5-2,.7-3.2v-.7a2.5,2.5,0,0,1-.2-.7l-1.8.2-1.9.5-1.9.7-1.9.5-1.3.2h-2l-1.1-.2h-7a44.3,44.3,0,0,0-5.2-.2h-2.4a3.8,3.8,0,0,0-2.4.9,43.4,43.4,0,0,1,0,5.1c0,1.7-.1,3.4-.1,5.1l-.3,5c0,1.7-.1,3.4-.1,5.2v5c0,.6.6,1.1,1.1,1.7l1.4,1.7,1.2,1.7a4.1,4.1,0,0,1,.5,1.8v.4a10.5,10.5,0,0,1-4,.4c.1.4,0,.7-.2.8h-2.7a7.8,7.8,0,0,1-2.2-.3,3.7,3.7,0,0,1-1.8-.8,2.3,2.3,0,0,1-.8-1.9c0-.4.1-.8.1-1.2a5,5,0,0,1,.4-1.3l.3-1.3a6.6,6.6,0,0,0,.1-1.4,23.4,23.4,0,0,0-.3-3.8c-.1-1.2-.4-2.4-.6-3.6s-.6-2.6-.8-3.8a23.9,23.9,0,0,1-.8-3.9h-.4c-.2,0-.4.8-.5.9l-.4.7-.3.5-1.5,2.3c-.6.7-1,1.5-1.5,2.2a25.6,25.6,0,0,0-1.1,2.4,12.6,12.6,0,0,0-.4,2.7,4.1,4.1,0,0,0,.3,1.6,10.2,10.2,0,0,0,.8,1.5,6.3,6.3,0,0,0,.7,1.2l.3.5a.9.9,0,0,1-.4.8l-1,.4-1.3.3H98.3l-1.1-.4a3.5,3.5,0,0,1-.7-.9l-.5-1.6c-.2-.5-.3-1.1-.5-1.6a4.5,4.5,0,0,1-.3-1.6,4.2,4.2,0,0,1,.4-1.5,14,14,0,0,1,1-1.6c.3-.5.7-1,1-1.6a5,5,0,0,0,.8-1.4c.9-1.9,1.7-3.9,2.5-5.8l2.4-5.9.5-.7a1.8,1.8,0,0,1,.5-.7l.4-.8a1.9,1.9,0,0,0,.2-.8q0-.6-.3-.6h-1.3l-8.9,2.4a3.2,3.2,0,0,1-1.3.5l-1.8.4a5.2,5.2,0,0,0-1.5.6,1,1,0,0,0-.7,1,2,2,0,0,0,.2.9l.7.7.8.5.8.6-.4.5-1.3-.9-1.4-.8-1.5-.6a3.9,3.9,0,0,0-1.5-.2,12.8,12.8,0,0,0-3.8.5l-3.9,1.1-4,1.1a15.1,15.1,0,0,1-4.2.5,18.5,18.5,0,0,1-3.5-.4,39.7,39.7,0,0,1-4.8-1.1,37.4,37.4,0,0,1-5.4-1.7,44.9,44.9,0,0,1-4.9-2.2,18.6,18.6,0,0,1-3.7-2.7,4.2,4.2,0,0,1-1.4-2.9,4.7,4.7,0,0,1,1.1-3.3,7.4,7.4,0,0,1,2.7-1.6,13.6,13.6,0,0,1,3.5-.1,31.1,31.1,0,0,1,3.3.3h4a1.9,1.9,0,0,1,1.2-.3,19.5,19.5,0,0,1,2.3.2l2.6.3,1.9.3a5.9,5.9,0,0,1,1.9.5l1.8.8,1.8.8a6.9,6.9,0,0,0,2,.3,8.8,8.8,0,0,0,4-1c1.3-.8,2.7-1.6,4.1-2.6s2.6-2,3.8-3.1l3.3-2.7,1.8-1.2,1.8-1.1,1.7-1.2a6.1,6.1,0,0,0,1.5-1.7,33,33,0,0,0,2.6-4.5,39.9,39.9,0,0,1,2.7-4.4l1.3-1.3,1.5-1,1.6-.8,1.6-.9a24.2,24.2,0,0,0,3.6-2.7l3.4-2.8,3.4-3c1.1-1,2.2-2,3.4-2.9a27.1,27.1,0,0,1,3.7-2.1l3.9-1.9,2.5-1.3,2.4-1.3,2.6-1.1a11.1,11.1,0,0,1,2.6-.7l22.2-3.3a8.9,8.9,0,0,0,3.5-1.1,14.6,14.6,0,0,0,3.3-2.2,27.9,27.9,0,0,0,3.2-2.8c1-1.1,2-2.1,2.9-3.2l2.6-3.2,2.3-2.8,7.7-8.9.3-.3.5-.5.5-.5.3-.3,2-3.2.3-.2.4-.2.3-.3c.2,0,.2-.1.3-.2l.4-.4.3-.3,1.3-1.7,1.3-2,1.3-1.9,1-1.7.8-2a14.2,14.2,0,0,0,.7-2.2,18,18,0,0,1,.8-2.1c.2-.7,1-1.5,1-2.2V64.2a5.3,5.3,0,0,0-1.1-3,10.7,10.7,0,0,0-2.6-2.6,11.9,11.9,0,0,0-3.3-1.8,10.9,10.9,0,0,0-3.2-.7,27.9,27.9,0,0,0-5.8.7,12.4,12.4,0,0,0-5.1,2.6l-1.4,1.4-1.6,1.9c-.6.6-1.1,1.3-1.7,2a16.2,16.2,0,0,1-1.9,1.8,10.2,10.2,0,0,1-1.8,1.3,3.7,3.7,0,0,1-1.7.5,1.7,1.7,0,0,1-1.2-.5,1.4,1.4,0,0,1-.5-1.1v-.4a4.3,4.3,0,0,0,.1-.5c.1-.2.1-.5.2-.7s.1-.6.1-.8a1.3,1.3,0,0,0,.1-.5,7,7,0,0,0-.2-1.6l-.6-1.4a6.7,6.7,0,0,1-.6-1.2,2.7,2.7,0,0,1-.3-1.2,1.2,1.2,0,0,0,.9-.3,1.5,1.5,0,0,0,.4-.6l.4-.7a1.6,1.6,0,0,1,.8-.6c0-.1.2-.1.6-.1h2.2a1.3,1.3,0,0,0,1-.3,2.3,2.3,0,0,1,.7-.7h.4c0,.1.1.2.2.4s.1.4.2.4.2-.3.4-.3l.6-.4,1.1-.6,1.4-.9,1.3-.7,1.1-.7.5-.4,2.1-1.2,1.8-.7,1.9-.2h6.4l1.4.5,1.6.3,1.5.3,1.5.5a14.8,14.8,0,0,1,4.5,3,16.1,16.1,0,0,1,3.2,4.2,19.6,19.6,0,0,1,1.7,5,24.7,24.7,0,0,1,.5,5.4v2.3Z"/></g></svg>