<svg id="Layer_1" data-name="Layer 1" xmlns="http://www.w3.org/2000/svg" width="256" height="256" viewBox="0 0 256 256"><title>velociraptor</title><path id="velociraptor" d="M128,2.3a126,126,0,1,0,126,126A126,126,0,0,0,128,2.3Zm109,115a28,28,0,0,1-4.1,0h-3.2a90.8,90.8,0,0,1-9.1-.5l-9-.9-9-1c-3-.3-6.1-.4-9.1-.4a148,148,0,0,0-16.2.9,73.9,73.9,0,0,0-15.6,3.7L131.4,130a2.4,2.4,0,0,0-1.2,1.6,17.3,17.3,0,0,0-.8,2.7l-.6,2.8a9.8,9.8,0,0,1-.6,2,3.2,3.2,0,0,0,1.3,1.3l2.4,1.1,2.9,1.2a17.1,17.1,0,0,1,2.7,1.4,7.8,7.8,0,0,1,2.1,1.9,3.5,3.5,0,0,1,.8,2.4,1.3,1.3,0,0,1-.5,1.2l-1.2.9-1.6.7-1.5.8-1.3,1a2.4,2.4,0,0,0-.4,1.5,3.7,3.7,0,0,0,.7,2.5,7.8,7.8,0,0,0,2,1.6,17.1,17.1,0,0,0,2.3,1.3,8.7,8.7,0,0,1,2.1,1.7,15.1,15.1,0,0,1,2,3.4,18.2,18.2,0,0,1,1.3,3.7c.3,1.2.6,2.5.8,3.8s.1,2.6.2,3.9l1.3,1.3v7.1h.9l1,.2,1,.2.5.2a4.4,4.4,0,0,1,.1.9,3.4,3.4,0,0,1-.1.9,9.3,9.3,0,0,1-.4,1.3,1.8,1.8,0,0,1-.6.9c-.2.3-.5.3-.9.3H143c-.2,0-.5-.5-1-.8l-1.5-.9-1.5-.7c-.5-.4-.9-.9-1.2-.9h-6.1a4.7,4.7,0,0,1,.7-2.9,4.1,4.1,0,0,1,1.6-1.6,8.3,8.3,0,0,1,2.1-.6l2.1-.4a3.4,3.4,0,0,0,1.6-.6,1.3,1.3,0,0,0,.7-1.3.4.4,0,0,0-.1-.3v-.3l-.8-1.8c-.4-.7-.8-1.6-1.3-2.4a19.4,19.4,0,0,0-1.5-2.4,10.1,10.1,0,0,0-1.5-1.8l-1.3-.8-1.9-1a9.5,9.5,0,0,1-1.7-1,3.3,3.3,0,0,1-1-1.1c-.3-.8-.6-1.8-.9-2.9a17.3,17.3,0,0,0-1.1-3.2,9,9,0,0,0-1.7-2.6,4.1,4.1,0,0,0-2.8-1,24.7,24.7,0,0,0-6,.8,28,28,0,0,0-5.7,2.2,24.3,24.3,0,0,0-4.9,3.5,21.1,21.1,0,0,0-3.9,4.5l-.4.2h-.2c-.1,0-.2-.2-.2-.3a6.4,6.4,0,0,1-.2-.7,1.4,1.4,0,0,0-.2-.6.4.4,0,0,0-.1-.3h-.3a1.4,1.4,0,0,0-1,.5,3.8,3.8,0,0,0-.9,1.2,5.7,5.7,0,0,0-.8,1.3l-.9,1a3.5,3.5,0,0,1-.6-1.7,7.6,7.6,0,0,1-.1-1.6,9.2,9.2,0,0,1,.4-2.9l.9-2.7c.3-1,.6-1.6.9-2.6a14.1,14.1,0,0,0,.4-2.7H94.3c0-1.7.2-1.8.6-2.4a5.7,5.7,0,0,1,1.6-1.5,5,5,0,0,1,2.1-.9l2.1-.3a15.1,15.1,0,0,1,3,.2l2.9.4,2.9.5,2.9.2h2.2A2.1,2.1,0,0,0,113,150l-2.5-.5-2.7-.2c-.9,0-1.6.2-2.2-.2l-3.8-2.1h-.3a17.1,17.1,0,0,0-3.2-.1,10.6,10.6,0,0,1-3.1.2,7.3,7.3,0,0,1-3-.7L89.6,145,87,143.7a4.8,4.8,0,0,0-2.8-.6v6l1.6-.2.9-.3.9-.5a3.5,3.5,0,0,1,.9-.6l.6-.2V150l2-.6c0,.1.2.2.2.5s.1.3.1.5a5.5,5.5,0,0,1-1.3,3.8,18.2,18.2,0,0,1-3.2,2.9,29.2,29.2,0,0,0-4.6-1.3l-4.7-.6v-7.7l-1.7.5-2.1,1a7.8,7.8,0,0,0-1.8,1.1c-.5.5-1,.9-1,1.2v6.9a9.6,9.6,0,0,0,3-.3l1.8-.6,1.2-.6,1.2-.3h.4l.2.7.5,1.2a9.3,9.3,0,0,1,.4,1.3,5.8,5.8,0,0,1,.2,1,7.2,7.2,0,0,1-.4,1.9,6.2,6.2,0,0,1-1.1,1.7,5,5,0,0,1-1.5,1.4,4.1,4.1,0,0,1-1.8.5H74l-2.9-.5a19.1,19.1,0,0,1-3.6-.7,14.2,14.2,0,0,1-3.3-1.2,2.6,2.6,0,0,1-1.4-2.1V150l.9-.8a20.2,20.2,0,0,0,1.9-1.6l2.3-2.1a19.5,19.5,0,0,0,2.4-2.6,15.1,15.1,0,0,0,1.8-2.6,6.3,6.3,0,0,0,.7-2.5,3.8,3.8,0,0,0-1.2-2.8,13.5,13.5,0,0,0-2.7-2,23.3,23.3,0,0,0-3.3-1.4l-2.5-.9-1.3-9a16.8,16.8,0,0,0-.6-2.7,8.1,8.1,0,0,0-1.1-2.7,5.1,5.1,0,0,0-1.7-2.1,4.2,4.2,0,0,0-2.7-.9,9.8,9.8,0,0,0-3.6.5,20.8,20.8,0,0,0-3.2,1.4l-1.6,1.1-2.5,1.4-2.9,1.8-3,1.7-2.5,1.6c-.8.5-1.3,1.2-1.6,1.2h-1l-1.7-.3-2.1-.3a4.7,4.7,0,0,1-1.4-.8c-.4-.3-.3-.8-.3-1.4v-1.8c0-.6-.2-.9,0-.9h1.6s-.1-.1,0-.4a1.9,1.9,0,0,0,.1-.8,3.1,3.1,0,0,0,.2-.8c.1-.3.1-.5,0-.5a3.5,3.5,0,0,0-.7-.9l-.9-.5a1.3,1.3,0,0,1-.7-.6,2.1,2.1,0,0,1-.3-1.2,2.7,2.7,0,0,1,.3-1.2,3.4,3.4,0,0,1,.6-1.2c.3-.3.3-.6.6-.8l.8-.4v.8c0,.5.5,1,.6,1.5s.7.7,1.2.7a1.4,1.4,0,0,0,1.1-.5,4.8,4.8,0,0,0,.9-1.1,11.1,11.1,0,0,0,.7-1.6c.1-.5.2.3.2-1.4H22.5a2.1,2.1,0,0,1-.9-.5,5.3,5.3,0,0,1-1-.6l-.9-.8a1.3,1.3,0,0,1-.4-1,4.6,4.6,0,0,1,1.1-3.2A8.6,8.6,0,0,1,23,99.6l3.1-1a13.6,13.6,0,0,0,2.8-.8l2.2-.9,3.4-1.5,3.3-1.6c1-.5,1.7-1.1,2.1-1.1H53.4a7.6,7.6,0,0,1,3.9,1,14.2,14.2,0,0,1,3,2.5,29.1,29.1,0,0,1,2.6,3.3c.7,1.2,1.5,2.2,2.2,3.3a18.9,18.9,0,0,0,2.3,2.5,3.7,3.7,0,0,0,2.4,1c.4,0,.7-.1.8-.4s.4-.4.9-.4l1.5.3,1.5.7,1.5.7a4,4,0,0,0,1.5.3l4.1-.2,4.1-.4,4-.5a28.2,28.2,0,0,1,4.1-.2,55.8,55.8,0,0,1,7.2.4,38.5,38.5,0,0,1,7.2,1.5c1.6.6,3.3,1.2,5,2l5.1,2.1a51.7,51.7,0,0,0,5.1,1.8,20,20,0,0,0,5.4.7h2.6l12.7-2.7c4.3-.9,8.5-1.6,12.8-2.3s8.5-1.1,12.8-1.5,8.6-.6,13-.6h8.7a31.5,31.5,0,0,1,5,1l36.1,7.1h11.6c-.8,0-1.8,1-3.1,1.4A26.1,26.1,0,0,1,237,117.3Z"/></svg>